<?xml version="1.0" encoding="UTF-8"?>
<svg width="36px" height="52px" viewBox="0 0 36 52" version="1.1" xmlns="http://www.w3.org/2000/svg" xmlns:xlink="http://www.w3.org/1999/xlink">
    <!-- Generator: Sketch 59 (86127) - https://sketch.com -->
    <title>Recording_icon</title>
    <desc>Created with Sketch.</desc>
    <g id="Page-1" stroke="none" stroke-width="1" fill="none" fill-rule="evenodd">
        <path d="M35,16 C35.5522847,16 36,16.4477153 36,17 L36,17 L36,23 C36,33.1276608 28.4876934,41.4233271 19.0000999,41.9711999 L19,50 L27,50 C27.5522847,50 28,50.4477153 28,51 C28,51.5522847 27.5522847,52 27,52 L9,52 C8.44771525,52 8,51.5522847 8,51 C8,50.4477153 8.44771525,50 9,50 L17,50 L17.0009022,41.9712577 C7.62073426,41.4301357 0.17112795,33.3156978 0.00290660902,23.3448091 L0,23 L0,17 C0,16.4477153 0.44771525,16 1,16 C1.55228475,16 2,16.4477153 2,17 L2,17 L2,23 C2,32.4012167 9.17662865,40 18,40 C26.8233714,40 34,32.4012167 34,23 L34,23 L34,17 C34,16.4477153 34.4477153,16 35,16 Z M18,0 C25.1797017,-1.31888981e-15 31,5.82029825 31,13 L31,24 C31,31.1797017 25.1797017,37 18,37 C10.8202983,37 5,31.1797017 5,24 L5,13 C5,5.82029825 10.8202983,1.31888981e-15 18,0 Z M22,6 C20.8954305,6 20,6.8954305 20,8 C20,9.1045695 20.8954305,10 22,10 C23.1045695,10 24,9.1045695 24,8 C24,6.8954305 23.1045695,6 22,6 Z" id="形状结合" fill="#606DFB" fill-rule="nonzero"></path>
    </g>
</svg>