<?xml version="1.0" encoding="UTF-8"?>
<svg width="60px" height="60px" viewBox="0 0 60 60" version="1.1" xmlns="http://www.w3.org/2000/svg" xmlns:xlink="http://www.w3.org/1999/xlink">
    <!-- Generator: Sketch 59 (86127) - https://sketch.com -->
    <title>Decision Tress_icon</title>
    <desc>Created with Sketch.</desc>
    <g id="Page-1" stroke="none" stroke-width="1" fill="none" fill-rule="evenodd">
        <path d="M30,0 C46.5685425,0 60,13.4314575 60,30 C60,46.5685425 46.5685425,60 30,60 C13.4314575,60 0,46.5685425 0,30 C0,13.4314575 13.4314575,0 30,0 Z M30,16 C27.790861,16 26,17.790861 26,20 L26,20 L26.0048953,20.1996403 C26.0735389,21.5961843 26.8584011,22.8044389 27.9998796,23.4648015 L27.9998796,23.4648015 L28,26 L19,26 L18.8507377,26.0054857 C17.8158778,26.0818349 17,26.9456382 17,28 L17,28 L16.9998796,36.5351985 C15.8043432,37.2268344 15,38.519485 15,40 C15,42.209139 16.790861,44 19,44 C21.209139,44 23,42.209139 23,40 C23,38.5198932 22.1961002,37.2275472 21.0011092,36.5357707 L21.0011092,36.5357707 L21,30 L28,30 L27.9998796,36.5351985 C26.8043432,37.2268344 26,38.519485 26,40 C26,42.209139 27.790861,44 30,44 C32.209139,44 34,42.209139 34,40 L34,40 L33.9951047,39.8003597 C33.926481,38.404219 33.1420521,37.196259 32.0011092,36.5357707 L32.0011092,36.5357707 L32,30 L39,30 L38.9998796,36.5351985 C37.8043432,37.2268344 37,38.519485 37,40 C37,42.209139 38.790861,44 41,44 C43.209139,44 45,42.209139 45,40 C45,38.5198932 44.1961002,37.2275472 43.0011092,36.5357707 L43.0011092,36.5357707 L43,28 L42.9945143,27.8507377 C42.9181651,26.8158778 42.0543618,26 41,26 L41,26 L32,26 L32.0011092,23.4642293 C33.1961002,22.7724528 34,21.4801068 34,20 C34,17.790861 32.209139,16 30,16 Z" id="形状结合" fill="#606DFB"></path>
        <g id="编组-12" transform="translate(15.000000, 16.000000)">
            <g id="编组-11" transform="translate(0.000000, 18.000000)"></g>
        </g>
    </g>
</svg>