<?xml version="1.0" encoding="UTF-8"?>
<svg width="60px" height="60px" viewBox="0 0 60 60" version="1.1" xmlns="http://www.w3.org/2000/svg" xmlns:xlink="http://www.w3.org/1999/xlink">
    <!-- Generator: Sketch 59 (86127) - https://sketch.com -->
    <title>Ensemble  Methods_icon</title>
    <desc>Created with Sketch.</desc>
    <g id="Page-1" stroke="none" stroke-width="1" fill="none" fill-rule="evenodd">
        <path d="M30,0 C46.5685425,0 60,13.4314575 60,30 C60,46.5685425 46.5685425,60 30,60 C13.4314575,60 0,46.5685425 0,30 C0,13.4314575 13.4314575,0 30,0 Z M31.5,15.8660254 C30.5717968,15.330127 29.4282032,15.330127 28.5,15.8660254 L28.5,15.8660254 L18.5096189,21.6339746 C17.5814157,22.169873 17.0096189,23.160254 17.0096189,24.2320508 L17.0096189,24.2320508 L17.0096189,35.7679492 C17.0096189,36.839746 17.5814157,37.830127 18.5096189,38.3660254 L18.5096189,38.3660254 L28.5,44.1339746 C29.4282032,44.669873 30.5717968,44.669873 31.5,44.1339746 L31.5,44.1339746 L41.4903811,38.3660254 C42.4185843,37.830127 42.9903811,36.839746 42.9903811,35.7679492 L42.9903811,35.7679492 L42.9903811,24.2320508 C42.9903811,23.160254 42.4185843,22.169873 41.4903811,21.6339746 L41.4903811,21.6339746 Z M40.4631245,23.1563385 C40.9290659,22.8598304 41.5471533,22.9971831 41.8436615,23.4631245 C42.1401696,23.9290659 42.0028169,24.5471533 41.5368755,24.8436615 L41.5368755,24.8436615 L30.9996189,31.5481016 L31,43.1045974 C31,43.6568821 30.5522847,44.1045974 30,44.1045974 C29.4477153,44.1045974 29,43.6568821 29,43.1045974 L29,43.1045974 L28.9996189,31.5481016 L18.4631245,24.8436615 C17.9971831,24.5471533 17.8598304,23.9290659 18.1563385,23.4631245 C18.4528467,22.9971831 19.0709341,22.8598304 19.5368755,23.1563385 L19.5368755,23.1563385 L30,29.8146905 Z" id="形状结合" fill="#606DFB"></path>
    </g>
</svg>