<?xml version="1.0" encoding="UTF-8"?>
<svg width="60px" height="60px" viewBox="0 0 60 60" version="1.1" xmlns="http://www.w3.org/2000/svg" xmlns:xlink="http://www.w3.org/1999/xlink">
    <!-- Generator: Sketch 59 (86127) - https://sketch.com -->
    <title>Logistic  Regression_icon</title>
    <desc>Created with Sketch.</desc>
    <g id="Page-1" stroke="none" stroke-width="1" fill="none" fill-rule="evenodd">
        <path d="M30,0 C46.5685425,0 60,13.4314575 60,30 C60,46.5685425 46.5685425,60 30,60 C13.4314575,60 0,46.5685425 0,30 C0,13.4314575 13.4314575,0 30,0 Z M30,15 C28.425451,15 27.0208912,17.1834306 26.1045103,20.5955091 C23.0435682,18.8307044 20.5067075,18.2800891 19.3933983,19.3933983 C18.2800891,20.5067075 18.8307044,23.0435682 20.5960921,26.1043871 C17.1834306,27.0208912 15,28.425451 15,30 C15,31.574549 17.1834306,32.9791088 20.5955091,33.8954897 C18.8307044,36.9564318 18.2800891,39.4932925 19.3933983,40.6066017 C20.5067075,41.7199109 23.0435682,41.1692956 26.1043871,39.4039079 C27.0208912,42.8165694 28.425451,45 30,45 C31.574549,45 32.9791088,42.8165694 33.8954897,39.4044909 C36.9564318,41.1692956 39.4932925,41.7199109 40.6066017,40.6066017 C41.7199109,39.4932925 41.1692956,36.9564318 39.4039079,33.8956129 C42.8165694,32.9791088 45,31.574549 45,30 C45,28.425451 42.8165694,27.0208912 39.4044909,26.1045103 C41.1692956,23.0435682 41.7199109,20.5067075 40.6066017,19.3933983 C39.4932925,18.2800891 36.9564318,18.8307044 33.8956129,20.5960921 C32.9791088,17.1834306 31.574549,15 30,15 Z M30,27 C31.6568542,27 33,28.3431458 33,30 C33,31.6568542 31.6568542,33 30,33 C28.3431458,33 27,31.6568542 27,30 C27,28.3431458 28.3431458,27 30,27 Z" id="形状结合" fill="#606DFB"></path>
    </g>
</svg>