<?xml version="1.0" encoding="UTF-8"?>
<svg width="60px" height="60px" viewBox="0 0 60 60" version="1.1" xmlns="http://www.w3.org/2000/svg" xmlns:xlink="http://www.w3.org/1999/xlink">
    <!-- Generator: Sketch 59 (86127) - https://sketch.com -->
    <title>Naive  Bayesian  Classification_icon</title>
    <desc>Created with Sketch.</desc>
    <g id="Page-1" stroke="none" stroke-width="1" fill="none" fill-rule="evenodd">
        <path d="M30,0 C46.5685425,0 60,13.4314575 60,30 C60,46.5685425 46.5685425,60 30,60 C13.4314575,60 0,46.5685425 0,30 C0,13.4314575 13.4314575,0 30,0 Z M29.1796875,16.01225 C25.7486484,16.2091797 22.5504141,17.6383281 20.1004688,20.0882734 C17.4562734,22.7325234 16,26.2482734 16,29.98775 C16,33.7272266 17.4562734,37.2429766 20.1004688,39.8872813 C22.7447188,42.5315313 26.2604688,43.98775 30,43.98775 C33.4647266,43.98775 36.7367891,42.7368281 39.3021797,40.4500156 L39.3021797,40.4500156 L34.6444453,35.7922813 L34.4016883,35.9788965 C33.1683801,36.8874967 31.6459058,37.42525 30,37.42525 C25.8989297,37.42525 22.5625,34.0888203 22.5625,29.98775 C22.5625,26.1639453 25.4632344,23.0053594 29.1796875,22.5956953 L29.1796875,22.5956953 Z M35.8045313,25.3433594 L35.8045313,25.3433594 L35.9911465,25.5861164 C36.8997467,26.8194246 37.4375,28.3418989 37.4375,29.9878047 C37.4375,31.7434375 36.8256563,33.3586328 35.8045313,34.63225 L35.8045313,34.63225 L40.4622656,39.2899844 L40.7120821,39.002059 C42.8400231,36.4819544 44,33.324206 44,29.98775 C44,26.5229688 42.7490781,23.2509609 40.4622656,20.685625 L40.4622656,20.685625 Z M30,25.0111875 C27.2558906,25.0111875 25.0234375,27.2436406 25.0234375,29.98775 C25.0234375,32.7318594 27.2558906,34.9643125 30,34.9643125 C32.7441094,34.9643125 34.9765625,32.7318594 34.9765625,29.98775 C34.9765625,27.2436406 32.7441094,25.0111875 30,25.0111875 Z M30.8203125,22.59575 L30.8203125,22.59575 L31.1496739,22.6395369 C32.4580145,22.8434206 33.6544669,23.3895138 34.6444453,24.1832734 L34.6444453,24.1832734 L39.3021797,19.5255391 L39.0038508,19.2669453 C36.6931832,17.319674 33.8476051,16.1859854 30.8203125,16.01225 L30.8203125,16.01225 Z" id="形状结合" fill="#606DFB"></path>
        <g id="graphic" transform="translate(16.000000, 16.000000)"></g>
    </g>
</svg>