<?xml version="1.0" encoding="UTF-8"?>
<svg width="60px" height="60px" viewBox="0 0 60 60" version="1.1" xmlns="http://www.w3.org/2000/svg" xmlns:xlink="http://www.w3.org/1999/xlink">
    <!-- Generator: Sketch 59 (86127) - https://sketch.com -->
    <title>Ordinary Least  Squares  Regression_icon</title>
    <desc>Created with Sketch.</desc>
    <g id="Page-1" stroke="none" stroke-width="1" fill="none" fill-rule="evenodd">
        <path d="M30,0 C46.5685425,0 60,13.4314575 60,30 C60,46.5685425 46.5685425,60 30,60 C13.4314575,60 0,46.5685425 0,30 C0,13.4314575 13.4314575,0 30,0 Z M30,37 C28.3431458,37 27,38.3431458 27,40 C27,41.6568542 28.3431458,43 30,43 C31.6568542,43 33,41.6568542 33,40 C33,38.3431458 31.6568542,37 30,37 Z M22.2218254,19.3933983 C21.4407768,18.6123497 20.1744469,18.6123497 19.3933983,19.3933983 C18.6123497,20.1744469 18.6123497,21.4407768 19.3933983,22.2218254 L19.3933983,22.2218254 L27.1708658,29.9992929 L19.3933983,37.7781746 C18.6123497,38.5592232 18.6123497,39.8255531 19.3933983,40.6066017 C20.1744469,41.3876503 21.4407768,41.3876503 22.2218254,40.6066017 L22.2218254,40.6066017 L29.9992929,32.82772 L37.7781746,40.6066017 C38.5592232,41.3876503 39.8255531,41.3876503 40.6066017,40.6066017 C41.3876503,39.8255531 41.3876503,38.5592232 40.6066017,37.7781746 L40.6066017,37.7781746 L32.82772,29.9992929 L40.6066017,22.2218254 C41.3876503,21.4407768 41.3876503,20.1744469 40.6066017,19.3933983 C39.8255531,18.6123497 38.5592232,18.6123497 37.7781746,19.3933983 L37.7781746,19.3933983 L29.9992929,27.1708658 Z M20,27 C18.3431458,27 17,28.3431458 17,30 C17,31.6568542 18.3431458,33 20,33 C21.6568542,33 23,31.6568542 23,30 C23,28.3431458 21.6568542,27 20,27 Z M40,27 C38.3431458,27 37,28.3431458 37,30 C37,31.6568542 38.3431458,33 40,33 C41.6568542,33 43,31.6568542 43,30 C43,28.3431458 41.6568542,27 40,27 Z M30,17 C28.3431458,17 27,18.3431458 27,20 C27,21.6568542 28.3431458,23 30,23 C31.6568542,23 33,21.6568542 33,20 C33,18.3431458 31.6568542,17 30,17 Z" id="形状结合" fill="#606DFB"></path>
    </g>
</svg>