<?xml version="1.0" encoding="UTF-8"?>
<svg width="36px" height="36px" viewBox="0 0 36 36" version="1.1" xmlns="http://www.w3.org/2000/svg" xmlns:xlink="http://www.w3.org/1999/xlink">
    <!-- Generator: Sketch 59 (86127) - https://sketch.com -->
    <title>go_icon</title>
    <desc>Created with Sketch.</desc>
    <g id="Page-1" stroke="none" stroke-width="1" fill="none" fill-rule="evenodd">
        <g id="编组-2备份" transform="translate(-3020.000000, 3.000000)" fill="#3D8BFF" fill-rule="nonzero">
            <path d="M3035.36402,0.481269209 C3036.03836,1.12972352 3036.05935,2.2020651 3035.4109,2.87641117 L3035.39891,2.88875574 L3035.39891,2.88875574 L3025.674,12.797 L3054.29773,12.7977255 C3055.23787,12.7977255 3056,13.5598598 3056,14.5 C3056,15.4401402 3055.23787,16.2022745 3054.29773,16.2022745 L3025.675,16.202 L3035.39891,26.1112443 C3036.05418,26.7789674 3036.04409,27.8514669 3035.37636,28.5067389 L3035.36402,28.5187308 L3035.36402,28.5187308 C3034.68077,29.1757474 3033.59587,29.160025 3032.93195,28.4834852 L3020.58393,15.9008419 C3019.82055,15.1229497 3019.82055,13.8770503 3020.58393,13.0991581 L3032.93195,0.516514802 C3033.59587,-0.16002503 3034.68077,-0.175747363 3035.36402,0.481269209 Z" id="icon-back" transform="translate(3038.000000, 14.500000) scale(-1, 1) translate(-3038.000000, -14.500000) "></path>
        </g>
    </g>
</svg>