<?xml version="1.0" encoding="UTF-8"?>
<svg width="50px" height="40px" viewBox="0 0 50 40" version="1.1" xmlns="http://www.w3.org/2000/svg" xmlns:xlink="http://www.w3.org/1999/xlink">
    <!-- Generator: Sketch 59 (86127) - https://sketch.com -->
    <title>cross-validation score_icon</title>
    <desc>Created with Sketch.</desc>
    <g id="Page-1" stroke="none" stroke-width="1" fill="none" fill-rule="evenodd">
        <path d="M33.4580924,1.7262727 C34.1615828,0.874700644 35.4222101,0.754656785 36.2737821,1.45814724 L36.2737821,1.45814724 L44.2737821,8.06701089 C45.2075054,8.8383671 45.2467857,10.2560534 44.3572066,11.0779284 L44.3572066,11.0779284 L36.3572066,18.4690648 C35.5458948,19.2186293 34.2805546,19.1685732 33.53099,18.3572614 C32.7814255,17.5459497 32.8314816,16.2806094 33.6427934,15.5310449 L33.6427934,15.5310449 L37.464,12 L30.7228837,12.0000548 L23.403,20.22 L30.8036483,29.0000548 L37.912,29 L33.7262179,25.5419624 C32.9172244,24.8736465 32.7684352,23.7025146 33.3587338,22.8569556 L33.4580924,22.7262727 C34.1615828,21.8747006 35.4222101,21.7546568 36.2737821,22.4581472 L36.2737821,22.4581472 L44.2737821,29.0670109 C45.2075054,29.8383671 45.2467857,31.2560534 44.3572066,32.0779284 L44.3572066,32.0779284 L36.3572066,39.4690648 C35.5458948,40.2186293 34.2805546,40.1685732 33.53099,39.3572614 C32.7814255,38.5459497 32.8314816,37.2806094 33.6427934,36.5310449 L33.6427934,36.5310449 L37.464,33 L29.873694,33.0000548 C29.2840376,33.0000548 28.7244309,32.7398505 28.3444201,32.2889774 L20.716,23.237 L12.6199647,32.3300863 C12.2784122,32.7136583 11.8040311,32.9494752 11.296554,32.9928029 L11.126306,33.0000548 L2,33.0000548 C0.8954305,33.0000548 2.27373675e-13,32.1046243 2.27373675e-13,31.0000548 C2.27373675e-13,29.8954853 0.8954305,29.0000548 2,29.0000548 L2,29.0000548 L10.2292222,29.0000548 L18.111,20.148 L11.2442458,12.0000548 L2,12.0000548 C0.8954305,12.0000548 2.27373675e-13,11.1046243 2.27373675e-13,10.0000548 C2.27373675e-13,8.89548534 0.8954305,8.00005484 2,8.00005484 L12.1742001,8.00005484 C12.7638566,8.00005484 13.3234633,8.2602592 13.703474,8.71113228 L20.799,17.13 L28.3321412,8.67002335 C28.6736936,8.28645141 29.1480747,8.05063447 29.6555518,8.0073068 L29.8257999,8.00005484 L37.912,8 L33.7262179,4.54196244 C32.9172244,3.87364652 32.7684352,2.70251464 33.3587338,1.85695565 Z" id="形状结合备份" fill="#606DFB" fill-rule="nonzero"></path>
    </g>
</svg>